<svg version="1.1" id="Layer_1" xmlns="http://www.w3.org/2000/svg" xmlns:xlink="http://www.w3.org/1999/xlink" x="0px" y="0px" viewBox="4.9999999999999964 7.400000000000002 214.7 240.29999999999998" xml:space="preserve" enable-background="new 0 0 224.7 255.1">

<g>
	<g>
		<path d="M89.3,50.6l25.4-25.4c4.8-4.8,6.3-11.7,4.6-17.8l5.1,5.1c6.2,6.2,7.7,17.8,1.6,23.9l-25.4,25.4
			c-4.8,4.8-6.3,11.7-4.6,17.8l-6.7-6.7C83.1,66.8,83.1,56.8,89.3,50.6z" fill="#bd1622"></path>
	</g>
	<g>
		<path d="M99.6,82.8l24.5-24.5c4.8-4.8,6.3-11.7,4.6-17.8l5.1,5.1c6.2,6.2,7.7,17.8,1.6,23.9l-24.5,24.5
			c-4.8,4.8-6.3,11.7-4.6,17.8l-6.7-6.7C93.4,99,93.4,89,99.6,82.8z" fill="#e20613"></path>
	</g>
	<path d="M89.3,186.5l25.4-25.4c4.8-4.8,6.3-11.7,4.6-17.8l5.1,5.1c6.2,6.2,7.7,17.8,1.6,23.9l-25.4,25.4
		c-4.8,4.8-6.3,11.7-4.6,17.8l-6.7-6.7C83.1,202.6,83.1,192.6,89.3,186.5z" fill="#00a099"></path>
	<path d="M99.6,218.7l24.5-24.5c4.8-4.8,6.3-11.7,4.6-17.8l5.1,5.1c6.2,6.2,7.7,17.8,1.6,23.9l-24.5,24.5
		c-4.8,4.8-6.3,11.7-4.6,17.8l-6.7-6.7C93.4,234.9,93.4,224.9,99.6,218.7z" fill="#007d73"></path>
	<g>
		<path d="M167.3,69.5l34.7,9.3c6.6,1.8,13.3-0.4,17.7-5l-1.9,7c-2.3,8.4-11.5,15.6-19.9,13.3l-34.7-9.3
			c-6.6-1.8-13.3,0.4-17.7,5l2.4-9.1C150.2,72.2,158.8,67.2,167.3,69.5z" fill="#f29100"></path>
	</g>
	<g>
		<path d="M144.5,94.5l33.5,9c6.6,1.8,13.3-0.4,17.7-5l-1.9,7c-2.3,8.4-11.5,15.6-19.9,13.3l-33.5-9
			c-6.6-1.8-13.3,0.4-17.7,5l2.4-9.1C127.4,97.2,136.1,92.2,144.5,94.5z" fill="#f8b133"></path>
	</g>
	<path d="M49.6,137.4l34.7,9.3c6.6,1.8,13.3-0.4,17.7-5l-1.9,7c-2.3,8.4-11.5,15.6-19.9,13.3l-34.7-9.3
		c-6.6-1.8-13.3,0.4-17.7,5l2.4-9.1C32.5,140.1,41.2,135.1,49.6,137.4z" fill="#009ee2"></path>
	<path d="M26.8,162.4l33.5,9c6.6,1.8,13.3-0.4,17.7-5l-1.9,7c-2.3,8.4-11.5,15.6-19.9,13.3l-33.5-9
		c-6.6-1.8-13.3,0.4-17.7,5l2.4-9.1C9.7,165.2,18.4,160.1,26.8,162.4z" fill="#1d70b7"></path>
	<g>
		<path d="M190.5,146.3l9.3,34.7c1.8,6.6,7,11.3,13.1,12.8l-7,1.9c-8.4,2.3-19.2-2.2-21.5-10.6l-9.3-34.7
			c-1.8-6.6-7-11.3-13.1-12.8l9.1-2.4C179.6,132.9,188.3,137.9,190.5,146.3z" fill="#39a935"></path>
	</g>
	<g>
		<path d="M157.5,139.1l9,33.5c1.8,6.6,7,11.3,13.1,12.8l-7,1.9c-8.4,2.3-19.2-2.2-21.5-10.6l-9-33.5
			c-1.8-6.6-7-11.3-13.1-12.8l9.1-2.4C146.6,125.6,155.2,130.6,157.5,139.1z" fill="#95c023"></path>
	</g>
	<g>
		<path d="M72.9,78.4l9.3,34.7c1.8,6.6,7,11.3,13.1,12.8l-7,1.9c-8.4,2.3-19.2-2.2-21.5-10.6l-9.3-34.7
			c-1.8-6.6-7-11.3-13.1-12.8l9.1-2.4C61.9,64.9,70.6,69.9,72.9,78.4z" fill="#81358a"></path>
	</g>
	<g>
		<path d="M39.8,71.1l9,33.5c1.8,6.6,7,11.3,13.1,12.8l-7,1.9c-8.4,2.3-19.2-2.2-21.5-10.6l-9-33.5
			c-1.8-6.6-7-11.3-13.1-12.8l9.1-2.4C28.9,57.7,37.5,62.7,39.8,71.1z" fill="#61246d"></path>
	</g>
</g>
<defs></defs></svg>